<mxfile host="Electron" agent="Mozilla/5.0 (Macintosh; Intel Mac OS X 10_15_7) AppleWebKit/537.36 (KHTML, like Gecko) draw.io/24.7.17 Chrome/128.0.6613.36 Electron/32.0.1 Safari/537.36" version="24.7.17">
  <diagram id="prtHgNgQTEPvFCAcTncT" name="Page-1">
    <mxGraphModel dx="2102" dy="1222" grid="1" gridSize="10" guides="1" tooltips="1" connect="1" arrows="1" fold="1" page="1" pageScale="1" pageWidth="827" pageHeight="1169" background="#ffffff" math="0" shadow="0">
      <root>
        <mxCell id="0" />
        <mxCell id="1" parent="0" />
        <mxCell id="dNxyNK7c78bLwvsdeMH5-19" value="Pool" style="swimlane;html=1;childLayout=stackLayout;resizeParent=1;resizeParentMax=0;horizontal=0;startSize=20;horizontalStack=0;labelBackgroundColor=none;fillColor=#09555B;strokeColor=#BAC8D3;fontColor=#EEEEEE;" parent="1" vertex="1">
          <mxGeometry x="30" y="120" width="960" height="360" as="geometry" />
        </mxCell>
        <mxCell id="dNxyNK7c78bLwvsdeMH5-20" value="Deelnemerregistratie" style="swimlane;html=1;startSize=20;horizontal=0;labelBackgroundColor=none;fillColor=#09555B;strokeColor=#BAC8D3;fontColor=#EEEEEE;" parent="dNxyNK7c78bLwvsdeMH5-19" vertex="1">
          <mxGeometry x="20" width="940" height="120" as="geometry" />
        </mxCell>
        <mxCell id="dNxyNK7c78bLwvsdeMH5-25" value="" style="edgeStyle=orthogonalEdgeStyle;rounded=0;orthogonalLoop=1;jettySize=auto;html=1;labelBackgroundColor=none;strokeColor=#0B4D6A;fontColor=default;" parent="dNxyNK7c78bLwvsdeMH5-20" source="dNxyNK7c78bLwvsdeMH5-23" target="dNxyNK7c78bLwvsdeMH5-24" edge="1">
          <mxGeometry relative="1" as="geometry" />
        </mxCell>
        <mxCell id="dNxyNK7c78bLwvsdeMH5-23" value="" style="ellipse;whiteSpace=wrap;html=1;labelBackgroundColor=none;fillColor=#09555B;strokeColor=#BAC8D3;fontColor=#EEEEEE;" parent="dNxyNK7c78bLwvsdeMH5-20" vertex="1">
          <mxGeometry x="40" y="40" width="40" height="40" as="geometry" />
        </mxCell>
        <mxCell id="fg0toYSnDCcFBhZRif6i-3" style="edgeStyle=orthogonalEdgeStyle;rounded=0;orthogonalLoop=1;jettySize=auto;html=1;entryX=0;entryY=0.5;entryDx=0;entryDy=0;strokeColor=#0B4D6A;" parent="dNxyNK7c78bLwvsdeMH5-20" source="dNxyNK7c78bLwvsdeMH5-24" target="dNxyNK7c78bLwvsdeMH5-30" edge="1">
          <mxGeometry relative="1" as="geometry" />
        </mxCell>
        <mxCell id="dNxyNK7c78bLwvsdeMH5-24" value="Registtratie compenent" style="rounded=0;whiteSpace=wrap;html=1;fontFamily=Helvetica;fontSize=12;fontColor=#EEEEEE;align=center;labelBackgroundColor=none;fillColor=#09555B;strokeColor=#BAC8D3;" parent="dNxyNK7c78bLwvsdeMH5-20" vertex="1">
          <mxGeometry x="120" y="30" width="80" height="60" as="geometry" />
        </mxCell>
        <mxCell id="dNxyNK7c78bLwvsdeMH5-30" value="&amp;nbsp;Component Offering Assocation" style="rounded=0;whiteSpace=wrap;html=1;fontFamily=Helvetica;fontSize=12;fontColor=#EEEEEE;align=center;labelBackgroundColor=none;fillColor=#09555B;strokeColor=#BAC8D3;" parent="dNxyNK7c78bLwvsdeMH5-20" vertex="1">
          <mxGeometry x="240" y="30" width="80" height="60" as="geometry" />
        </mxCell>
        <mxCell id="dNxyNK7c78bLwvsdeMH5-32" value="" style="ellipse;whiteSpace=wrap;html=1;labelBackgroundColor=none;fillColor=#09555B;strokeColor=#BAC8D3;fontColor=#EEEEEE;" parent="dNxyNK7c78bLwvsdeMH5-20" vertex="1">
          <mxGeometry x="950" y="40" width="40" height="40" as="geometry" />
        </mxCell>
        <mxCell id="fg0toYSnDCcFBhZRif6i-9" value="Beoordeelde Component Offering Assocation" style="rounded=0;whiteSpace=wrap;html=1;fontFamily=Helvetica;fontSize=12;fontColor=#EEEEEE;align=center;labelBackgroundColor=none;fillColor=#09555B;strokeColor=#BAC8D3;" parent="dNxyNK7c78bLwvsdeMH5-20" vertex="1">
          <mxGeometry x="529" y="30" width="80" height="60" as="geometry" />
        </mxCell>
        <mxCell id="fg0toYSnDCcFBhZRif6i-15" value="Nieuwe Component Offering Assocation" style="rounded=0;whiteSpace=wrap;html=1;fontFamily=Helvetica;fontSize=12;fontColor=#EEEEEE;align=center;labelBackgroundColor=none;fillColor=#09555B;strokeColor=#BAC8D3;" parent="dNxyNK7c78bLwvsdeMH5-20" vertex="1">
          <mxGeometry x="789" y="30" width="80" height="60" as="geometry" />
        </mxCell>
        <mxCell id="fg0toYSnDCcFBhZRif6i-19" style="edgeStyle=orthogonalEdgeStyle;rounded=0;orthogonalLoop=1;jettySize=auto;html=1;entryX=0;entryY=0.5;entryDx=0;entryDy=0;strokeColor=#0B4D6A;exitX=1;exitY=0.5;exitDx=0;exitDy=0;" parent="dNxyNK7c78bLwvsdeMH5-20" source="fg0toYSnDCcFBhZRif6i-15" target="dNxyNK7c78bLwvsdeMH5-32" edge="1">
          <mxGeometry relative="1" as="geometry">
            <Array as="points">
              <mxPoint x="890" y="60" />
              <mxPoint x="890" y="60" />
            </Array>
            <mxPoint x="860" y="70" as="sourcePoint" />
          </mxGeometry>
        </mxCell>
        <mxCell id="fg0toYSnDCcFBhZRif6i-16" value="" style="rhombus;whiteSpace=wrap;html=1;fontFamily=Helvetica;fontSize=12;fontColor=#EEEEEE;align=center;labelBackgroundColor=none;fillColor=#09555B;strokeColor=#BAC8D3;" parent="dNxyNK7c78bLwvsdeMH5-20" vertex="1">
          <mxGeometry x="649" y="40" width="40" height="40" as="geometry" />
        </mxCell>
        <mxCell id="fg0toYSnDCcFBhZRif6i-17" value="" style="endArrow=classic;html=1;rounded=0;strokeColor=#0B4D6A;exitX=1;exitY=0.5;exitDx=0;exitDy=0;entryX=0;entryY=0.5;entryDx=0;entryDy=0;" parent="dNxyNK7c78bLwvsdeMH5-20" source="fg0toYSnDCcFBhZRif6i-9" target="fg0toYSnDCcFBhZRif6i-16" edge="1">
          <mxGeometry width="50" height="50" relative="1" as="geometry">
            <mxPoint x="559" y="370" as="sourcePoint" />
            <mxPoint x="609" y="320" as="targetPoint" />
          </mxGeometry>
        </mxCell>
        <mxCell id="fg0toYSnDCcFBhZRif6i-20" style="edgeStyle=orthogonalEdgeStyle;rounded=0;orthogonalLoop=1;jettySize=auto;html=1;strokeColor=#0B4D6A;entryX=0.5;entryY=0;entryDx=0;entryDy=0;exitX=0.5;exitY=0;exitDx=0;exitDy=0;" parent="dNxyNK7c78bLwvsdeMH5-20" source="fg0toYSnDCcFBhZRif6i-16" target="dNxyNK7c78bLwvsdeMH5-30" edge="1">
          <mxGeometry relative="1" as="geometry">
            <Array as="points">
              <mxPoint x="669" />
              <mxPoint x="280" />
            </Array>
            <mxPoint x="280" y="10" as="targetPoint" />
          </mxGeometry>
        </mxCell>
        <mxCell id="dZo-QMU10RFKVBW9cM-j-4" value="" style="edgeStyle=orthogonalEdgeStyle;rounded=0;orthogonalLoop=1;jettySize=auto;html=1;" edge="1" parent="dNxyNK7c78bLwvsdeMH5-19" target="fg0toYSnDCcFBhZRif6i-9">
          <mxGeometry relative="1" as="geometry">
            <mxPoint x="609" y="120" as="sourcePoint" />
          </mxGeometry>
        </mxCell>
        <mxCell id="dNxyNK7c78bLwvsdeMH5-21" value="Toetsplanning" style="swimlane;html=1;startSize=20;horizontal=0;labelBackgroundColor=none;fillColor=#09555B;strokeColor=#BAC8D3;fontColor=#EEEEEE;" parent="dNxyNK7c78bLwvsdeMH5-19" vertex="1">
          <mxGeometry x="20" y="120" width="940" height="120" as="geometry" />
        </mxCell>
        <mxCell id="fg0toYSnDCcFBhZRif6i-5" style="edgeStyle=orthogonalEdgeStyle;rounded=0;orthogonalLoop=1;jettySize=auto;html=1;exitX=1;exitY=0.5;exitDx=0;exitDy=0;strokeColor=#0B4D6A;entryX=0;entryY=0.5;entryDx=0;entryDy=0;" parent="dNxyNK7c78bLwvsdeMH5-21" source="dNxyNK7c78bLwvsdeMH5-28" target="fg0toYSnDCcFBhZRif6i-11" edge="1">
          <mxGeometry relative="1" as="geometry">
            <mxPoint x="619" y="60" as="targetPoint" />
            <Array as="points" />
          </mxGeometry>
        </mxCell>
        <mxCell id="dNxyNK7c78bLwvsdeMH5-28" value="" style="rhombus;whiteSpace=wrap;html=1;fontFamily=Helvetica;fontSize=12;fontColor=#EEEEEE;align=center;labelBackgroundColor=none;fillColor=#09555B;strokeColor=#BAC8D3;" parent="dNxyNK7c78bLwvsdeMH5-21" vertex="1">
          <mxGeometry x="549" y="40" width="40" height="40" as="geometry" />
        </mxCell>
        <mxCell id="fg0toYSnDCcFBhZRif6i-8" style="edgeStyle=orthogonalEdgeStyle;rounded=0;orthogonalLoop=1;jettySize=auto;html=1;entryX=0;entryY=0.5;entryDx=0;entryDy=0;strokeColor=#0B4D6A;" parent="dNxyNK7c78bLwvsdeMH5-21" source="fg0toYSnDCcFBhZRif6i-4" target="dNxyNK7c78bLwvsdeMH5-28" edge="1">
          <mxGeometry relative="1" as="geometry" />
        </mxCell>
        <mxCell id="fg0toYSnDCcFBhZRif6i-4" value="Beoordeelde toets" style="rounded=0;whiteSpace=wrap;html=1;fontFamily=Helvetica;fontSize=12;fontColor=#EEEEEE;align=center;labelBackgroundColor=none;fillColor=#09555B;strokeColor=#BAC8D3;" parent="dNxyNK7c78bLwvsdeMH5-21" vertex="1">
          <mxGeometry x="409" y="30" width="80" height="60" as="geometry" />
        </mxCell>
        <mxCell id="fg0toYSnDCcFBhZRif6i-11" value="TPL herplande toets" style="rounded=0;whiteSpace=wrap;html=1;fontFamily=Helvetica;fontSize=12;fontColor=#EEEEEE;align=center;labelBackgroundColor=none;fillColor=#09555B;strokeColor=#BAC8D3;" parent="dNxyNK7c78bLwvsdeMH5-21" vertex="1">
          <mxGeometry x="629" y="30" width="80" height="60" as="geometry" />
        </mxCell>
        <mxCell id="fg0toYSnDCcFBhZRif6i-23" value="Beoordeelde hertoets" style="rounded=0;whiteSpace=wrap;html=1;fontFamily=Helvetica;fontSize=12;fontColor=#EEEEEE;align=center;labelBackgroundColor=none;fillColor=#09555B;strokeColor=#BAC8D3;" parent="dNxyNK7c78bLwvsdeMH5-21" vertex="1">
          <mxGeometry x="789" y="30" width="80" height="60" as="geometry" />
        </mxCell>
        <mxCell id="dNxyNK7c78bLwvsdeMH5-22" value="toetsafname" style="swimlane;html=1;startSize=20;horizontal=0;labelBackgroundColor=none;fillColor=#09555B;strokeColor=#BAC8D3;fontColor=#EEEEEE;" parent="dNxyNK7c78bLwvsdeMH5-19" vertex="1">
          <mxGeometry x="20" y="240" width="940" height="120" as="geometry" />
        </mxCell>
        <mxCell id="dNxyNK7c78bLwvsdeMH5-37" value="" style="edgeStyle=orthogonalEdgeStyle;rounded=0;orthogonalLoop=1;jettySize=auto;html=1;endArrow=classic;endFill=1;labelBackgroundColor=none;strokeColor=#0B4D6A;fontColor=default;entryX=0;entryY=0.5;entryDx=0;entryDy=0;" parent="dNxyNK7c78bLwvsdeMH5-22" source="dNxyNK7c78bLwvsdeMH5-34" target="fg0toYSnDCcFBhZRif6i-1" edge="1">
          <mxGeometry relative="1" as="geometry">
            <mxPoint x="360" y="50" as="targetPoint" />
            <Array as="points">
              <mxPoint x="280" y="50" />
              <mxPoint x="280" y="51" />
            </Array>
          </mxGeometry>
        </mxCell>
        <mxCell id="fg0toYSnDCcFBhZRif6i-22" style="edgeStyle=orthogonalEdgeStyle;rounded=0;orthogonalLoop=1;jettySize=auto;html=1;entryX=0;entryY=0.5;entryDx=0;entryDy=0;strokeColor=#0B4D6A;" parent="dNxyNK7c78bLwvsdeMH5-22" source="fg0toYSnDCcFBhZRif6i-13" target="fg0toYSnDCcFBhZRif6i-14" edge="1">
          <mxGeometry relative="1" as="geometry" />
        </mxCell>
        <mxCell id="fg0toYSnDCcFBhZRif6i-13" value="hertoets" style="rounded=0;whiteSpace=wrap;html=1;fontFamily=Helvetica;fontSize=12;fontColor=#EEEEEE;align=center;labelBackgroundColor=none;fillColor=#09555B;strokeColor=#BAC8D3;" parent="dNxyNK7c78bLwvsdeMH5-22" vertex="1">
          <mxGeometry x="629" y="20" width="80" height="60" as="geometry" />
        </mxCell>
        <mxCell id="fg0toYSnDCcFBhZRif6i-14" value="Afgeronde hertoets" style="rounded=0;whiteSpace=wrap;html=1;fontFamily=Helvetica;fontSize=12;fontColor=#EEEEEE;align=center;labelBackgroundColor=none;fillColor=#09555B;strokeColor=#BAC8D3;" parent="dNxyNK7c78bLwvsdeMH5-22" vertex="1">
          <mxGeometry x="789" y="20" width="80" height="60" as="geometry" />
        </mxCell>
        <mxCell id="dNxyNK7c78bLwvsdeMH5-26" value="geplande toets" style="rounded=0;whiteSpace=wrap;html=1;fontFamily=Helvetica;fontSize=12;fontColor=#EEEEEE;align=center;labelBackgroundColor=none;fillColor=#09555B;strokeColor=#BAC8D3;" parent="dNxyNK7c78bLwvsdeMH5-22" vertex="1">
          <mxGeometry x="239" y="-90" width="80" height="60" as="geometry" />
        </mxCell>
        <mxCell id="dNxyNK7c78bLwvsdeMH5-34" value="Toets" style="rounded=0;whiteSpace=wrap;html=1;fontFamily=Helvetica;fontSize=12;fontColor=#EEEEEE;align=center;labelBackgroundColor=none;fillColor=#09555B;strokeColor=#BAC8D3;" parent="dNxyNK7c78bLwvsdeMH5-22" vertex="1">
          <mxGeometry x="239" y="20" width="80" height="60" as="geometry" />
        </mxCell>
        <mxCell id="fg0toYSnDCcFBhZRif6i-2" style="edgeStyle=orthogonalEdgeStyle;rounded=0;orthogonalLoop=1;jettySize=auto;html=1;entryX=0.5;entryY=0;entryDx=0;entryDy=0;strokeColor=#0B4D6A;" parent="dNxyNK7c78bLwvsdeMH5-22" source="dNxyNK7c78bLwvsdeMH5-26" target="dNxyNK7c78bLwvsdeMH5-34" edge="1">
          <mxGeometry relative="1" as="geometry" />
        </mxCell>
        <mxCell id="dZo-QMU10RFKVBW9cM-j-2" value="2" style="edgeLabel;html=1;align=center;verticalAlign=middle;resizable=0;points=[];" vertex="1" connectable="0" parent="fg0toYSnDCcFBhZRif6i-2">
          <mxGeometry x="-0.23" y="1" relative="1" as="geometry">
            <mxPoint as="offset" />
          </mxGeometry>
        </mxCell>
        <mxCell id="fg0toYSnDCcFBhZRif6i-1" value="Afgeronde toets" style="rounded=0;whiteSpace=wrap;html=1;fontFamily=Helvetica;fontSize=12;fontColor=#EEEEEE;align=center;labelBackgroundColor=none;fillColor=#09555B;strokeColor=#BAC8D3;" parent="dNxyNK7c78bLwvsdeMH5-22" vertex="1">
          <mxGeometry x="409" y="20" width="80" height="60" as="geometry" />
        </mxCell>
        <mxCell id="dNxyNK7c78bLwvsdeMH5-29" value="" style="edgeStyle=orthogonalEdgeStyle;rounded=0;orthogonalLoop=1;jettySize=auto;html=1;endArrow=classic;endFill=1;labelBackgroundColor=none;strokeColor=#0B4D6A;fontColor=default;exitX=0.5;exitY=1;exitDx=0;exitDy=0;entryX=0.5;entryY=0;entryDx=0;entryDy=0;" parent="dNxyNK7c78bLwvsdeMH5-19" source="dNxyNK7c78bLwvsdeMH5-30" target="dNxyNK7c78bLwvsdeMH5-26" edge="1">
          <mxGeometry relative="1" as="geometry">
            <Array as="points">
              <mxPoint x="300" y="110" />
              <mxPoint x="299" y="110" />
            </Array>
          </mxGeometry>
        </mxCell>
        <mxCell id="dZo-QMU10RFKVBW9cM-j-1" value="1" style="edgeLabel;html=1;align=center;verticalAlign=middle;resizable=0;points=[];" vertex="1" connectable="0" parent="dNxyNK7c78bLwvsdeMH5-29">
          <mxGeometry x="-0.0935" y="-2" relative="1" as="geometry">
            <mxPoint as="offset" />
          </mxGeometry>
        </mxCell>
        <mxCell id="fg0toYSnDCcFBhZRif6i-7" style="edgeStyle=orthogonalEdgeStyle;rounded=0;orthogonalLoop=1;jettySize=auto;html=1;entryX=0.5;entryY=1;entryDx=0;entryDy=0;strokeColor=#0B4D6A;" parent="dNxyNK7c78bLwvsdeMH5-19" source="fg0toYSnDCcFBhZRif6i-1" target="fg0toYSnDCcFBhZRif6i-4" edge="1">
          <mxGeometry relative="1" as="geometry" />
        </mxCell>
        <mxCell id="dZo-QMU10RFKVBW9cM-j-3" value="3,4" style="edgeLabel;html=1;align=center;verticalAlign=middle;resizable=0;points=[];" vertex="1" connectable="0" parent="fg0toYSnDCcFBhZRif6i-7">
          <mxGeometry x="0.0633" y="-2" relative="1" as="geometry">
            <mxPoint as="offset" />
          </mxGeometry>
        </mxCell>
        <mxCell id="fg0toYSnDCcFBhZRif6i-10" style="edgeStyle=orthogonalEdgeStyle;rounded=0;orthogonalLoop=1;jettySize=auto;html=1;entryX=0.5;entryY=1;entryDx=0;entryDy=0;strokeColor=#0B4D6A;" parent="dNxyNK7c78bLwvsdeMH5-19" source="dNxyNK7c78bLwvsdeMH5-28" target="fg0toYSnDCcFBhZRif6i-9" edge="1">
          <mxGeometry relative="1" as="geometry" />
        </mxCell>
        <mxCell id="fg0toYSnDCcFBhZRif6i-21" style="edgeStyle=orthogonalEdgeStyle;rounded=0;orthogonalLoop=1;jettySize=auto;html=1;entryX=0.5;entryY=0;entryDx=0;entryDy=0;strokeColor=#0B4D6A;" parent="dNxyNK7c78bLwvsdeMH5-19" source="fg0toYSnDCcFBhZRif6i-11" target="fg0toYSnDCcFBhZRif6i-13" edge="1">
          <mxGeometry relative="1" as="geometry" />
        </mxCell>
        <mxCell id="fg0toYSnDCcFBhZRif6i-25" style="edgeStyle=orthogonalEdgeStyle;rounded=0;orthogonalLoop=1;jettySize=auto;html=1;entryX=0.5;entryY=1;entryDx=0;entryDy=0;strokeColor=#0B4D6A;" parent="dNxyNK7c78bLwvsdeMH5-19" source="fg0toYSnDCcFBhZRif6i-14" target="fg0toYSnDCcFBhZRif6i-23" edge="1">
          <mxGeometry relative="1" as="geometry" />
        </mxCell>
        <mxCell id="fg0toYSnDCcFBhZRif6i-26" style="edgeStyle=orthogonalEdgeStyle;rounded=0;orthogonalLoop=1;jettySize=auto;html=1;strokeColor=#0B4D6A;exitX=0.5;exitY=0;exitDx=0;exitDy=0;" parent="dNxyNK7c78bLwvsdeMH5-19" source="fg0toYSnDCcFBhZRif6i-23" edge="1">
          <mxGeometry relative="1" as="geometry">
            <Array as="points">
              <mxPoint x="849" y="180" />
              <mxPoint x="850" y="180" />
              <mxPoint x="850" y="90" />
            </Array>
            <mxPoint x="849" y="90" as="targetPoint" />
          </mxGeometry>
        </mxCell>
        <mxCell id="dZo-QMU10RFKVBW9cM-j-5" style="edgeStyle=orthogonalEdgeStyle;rounded=0;orthogonalLoop=1;jettySize=auto;html=1;entryX=0.5;entryY=1;entryDx=0;entryDy=0;strokeColor=#0B4D6A;exitX=0.5;exitY=0;exitDx=0;exitDy=0;" edge="1" parent="dNxyNK7c78bLwvsdeMH5-19" source="fg0toYSnDCcFBhZRif6i-11" target="fg0toYSnDCcFBhZRif6i-16">
          <mxGeometry relative="1" as="geometry">
            <mxPoint x="599" y="170" as="sourcePoint" />
            <mxPoint x="599" y="100" as="targetPoint" />
          </mxGeometry>
        </mxCell>
      </root>
    </mxGraphModel>
  </diagram>
</mxfile>
